<svg version="1.1" id="Layer_1" xmlns="http://www.w3.org/2000/svg" xmlns:xlink="http://www.w3.org/1999/xlink" x="0px" y="0px"
	 width="100%" viewBox="0 0 500 500" enable-background="new 0 0 500 500" xml:space="preserve">
<path fill="#FEFFFF" opacity="1.000000" stroke="none" 
	d="
M295.000000,501.000000 
	C196.666687,501.000000 98.833382,501.000000 1.000052,501.000000 
	C1.000035,334.333405 1.000035,167.666794 1.000018,1.000142 
	C167.666565,1.000095 334.333130,1.000095 500.999756,1.000047 
	C500.999847,167.666519 500.999847,334.333038 500.999939,500.999786 
	C432.500000,501.000000 364.000000,501.000000 295.000000,501.000000 
M324.587341,485.084961 
	C369.420410,471.155426 407.697876,446.870209 438.279388,411.256622 
	C488.447510,352.833557 507.655243,285.027649 495.486176,209.157806 
	C486.239868,151.510513 458.763641,103.067238 414.435608,65.007011 
	C355.644073,14.528340 287.209015,-4.553298 210.852234,7.432866 
	C152.306030,16.623203 102.985352,44.186432 64.368286,89.227219 
	C12.969910,149.175400 -5.621548,218.771835 8.519824,296.335327 
	C18.598009,351.612793 45.425941,398.355560 88.306786,434.679352 
	C157.514572,493.304382 236.494278,509.427887 324.587341,485.084961 
z"/>
<path fill="#58AA94" opacity="1.000000" stroke="none" 
	d="
M324.198090,485.189880 
	C236.494278,509.427887 157.514572,493.304382 88.306786,434.679352 
	C45.425941,398.355560 18.598009,351.612793 8.519824,296.335327 
	C-5.621548,218.771835 12.969910,149.175400 64.368286,89.227219 
	C102.985352,44.186432 152.306030,16.623203 210.852234,7.432866 
	C287.209015,-4.553298 355.644073,14.528340 414.435608,65.007011 
	C458.763641,103.067238 486.239868,151.510513 495.486176,209.157806 
	C507.655243,285.027649 488.447510,352.833557 438.279388,411.256622 
	C407.697876,446.870209 369.420410,471.155426 324.198090,485.189880 
M308.745941,181.244385 
	C302.832489,187.336182 296.611206,193.161179 291.059784,199.566727 
	C268.962189,225.064209 258.282898,253.949524 264.940399,288.081024 
	C271.543518,321.933838 300.357239,363.557068 352.535309,360.210907 
	C376.070160,358.701599 395.108826,348.999207 409.425537,330.390625 
	C425.011902,310.131805 427.690186,287.022980 423.350128,262.598511 
	C420.084412,244.219955 410.163574,230.871902 392.929901,223.318375 
	C384.861206,219.781845 376.637726,216.600220 368.535736,213.137543 
	C354.770691,207.254547 349.807068,204.672806 359.576294,186.642273 
	C366.267181,174.293274 376.771149,165.108200 387.140533,155.930862 
	C390.338409,153.100586 393.652069,150.401093 397.029785,147.542679 
	C392.592224,141.455704 388.403564,135.710098 384.276459,130.048965 
	C366.341370,137.813004 329.311096,162.928802 308.745941,181.244385 
M78.002556,273.371460 
	C78.807312,288.887024 82.561249,303.586456 90.096970,317.250031 
	C115.640839,363.565491 163.158112,367.330322 193.588272,353.708588 
	C227.393814,338.575897 245.285446,304.867767 239.796844,267.881744 
	C237.199387,250.378082 229.658600,235.763428 213.583527,227.017426 
	C205.866440,222.818787 197.572464,219.685669 189.568893,216.006592 
	C184.293167,213.581436 178.943527,211.272079 173.864578,208.478851 
	C170.204819,206.466156 168.273178,203.025360 169.817017,198.760895 
	C171.725082,193.490280 173.084122,187.648209 176.358276,183.323273 
	C182.958740,174.604568 190.542648,166.603683 198.024811,158.590469 
	C201.736160,154.615707 206.120834,151.269623 210.356537,147.500626 
	C206.413895,141.385681 202.670731,135.580124 198.875839,129.694351 
	C167.259140,147.213043 137.404205,165.991714 112.754471,191.855148 
	C91.310112,214.355423 76.215134,239.788177 78.002556,273.371460 
z"/>
<path fill="#FEFFFF" opacity="1.000000" stroke="none" 
	d="
M309.021423,181.022736 
	C329.311096,162.928802 366.341370,137.813004 384.276459,130.048965 
	C388.403564,135.710098 392.592224,141.455704 397.029785,147.542679 
	C393.652069,150.401093 390.338409,153.100586 387.140533,155.930862 
	C376.771149,165.108200 366.267181,174.293274 359.576294,186.642273 
	C349.807068,204.672806 354.770691,207.254547 368.535736,213.137543 
	C376.637726,216.600220 384.861206,219.781845 392.929901,223.318375 
	C410.163574,230.871902 420.084412,244.219955 423.350128,262.598511 
	C427.690186,287.022980 425.011902,310.131805 409.425537,330.390625 
	C395.108826,348.999207 376.070160,358.701599 352.535309,360.210907 
	C300.357239,363.557068 271.543518,321.933838 264.940399,288.081024 
	C258.282898,253.949524 268.962189,225.064209 291.059784,199.566727 
	C296.611206,193.161179 302.832489,187.336182 309.021423,181.022736 
z"/>
<path fill="#FEFFFF" opacity="1.000000" stroke="none" 
	d="
M77.996521,272.886810 
	C76.215134,239.788177 91.310112,214.355423 112.754471,191.855148 
	C137.404205,165.991714 167.259140,147.213043 198.875839,129.694351 
	C202.670731,135.580124 206.413895,141.385681 210.356537,147.500626 
	C206.120834,151.269623 201.736160,154.615707 198.024811,158.590469 
	C190.542648,166.603683 182.958740,174.604568 176.358276,183.323273 
	C173.084122,187.648209 171.725082,193.490280 169.817017,198.760895 
	C168.273178,203.025360 170.204819,206.466156 173.864578,208.478851 
	C178.943527,211.272079 184.293167,213.581436 189.568893,216.006592 
	C197.572464,219.685669 205.866440,222.818787 213.583527,227.017426 
	C229.658600,235.763428 237.199387,250.378082 239.796844,267.881744 
	C245.285446,304.867767 227.393814,338.575897 193.588272,353.708588 
	C163.158112,367.330322 115.640839,363.565491 90.096970,317.250031 
	C82.561249,303.586456 78.807312,288.887024 77.996521,272.886810 
z"/>
</svg>